<svg id="svg8" height="512" viewBox="0 0 16.933333 16.933334" width="512" xmlns="http://www.w3.org/2000/svg" xmlns:svg="http://www.w3.org/2000/svg"><g id="layer1"><path id="rect820" d="m8.0019531 0c-2.1986271 0-4 1.8033263-4 4.0019531v16.6562499c-1.4034142.469795-2.4149735 1.375532-3.03515622 2.394531-.72695437 1.194482-.96679688 2.50681-.96679688 3.603516v8.509766c0 1.770481.80315398 3.946317 1.5566406 6.060546.3768189 1.057134.7485769 2.082042 1.0195313 2.9375.2709921.855497.4199218 1.580063.4199219 1.830079v3.779297c-.609789.55011-.9960938 1.344483-.9960938 2.222656v8.998047c0 1.644619 1.3534236 3.005859 2.9980469 3.005859h14.0039061c1.644624 0 2.996094-1.36124 2.996094-3.005859v-8.998047c0-1.185827-.704135-2.21859-1.712891-2.703125.170457-.683755.519176-1.623127.908203-2.714844.45959-1.289688.942165-2.821829 1.085938-4.576172h18.607422l4.679687 9.365235c-.929726.511143-1.564453 1.501284-1.564453 2.628906v6.998047c0 1.644619 1.351432 3.005859 2.996094 3.005859h13.996094c1.644657 0 3.005859-1.36124 3.005859-3.005859v-6.998047c0-1.243881-.778596-2.320625-1.869141-2.771485.159118-.543987.44777-1.190578.783203-1.945312.511182-1.15011 1.085938-2.559108 1.085938-4.28125 0-13.665365 0-27.330729 0-40.9960939 0-2.1986268-1.803323-4.0019531-4.001953-4.0019531zm0 2h51.9960939c1.125241 0 2 .8766743 2 2.0019531v29.1699219c-.314835-.113386-.652868-.183718-1.003906-.175781-.522335.01134-.667502.07392-.996094.18164v-26.1796871c0-1.6446614-1.35147-2.9960938-2.996094-2.9960938h-46.003906c-1.6446234 0-2.9960939 1.3514324-2.9960939 2.9960938v17.3691411c-.0612283-.026457-.1219874-.055134-.1835937-.080079-.5854114-.237732-1.2183716-.331253-1.8164063-.214843v-20.0703129c0-1.1252788.8746839-2.0018 2-2.0019531zm1.9999999 24.185547v-19.1875001c0-.5712756.424819-.996056.996094-.9960938h46.003906c.571276 0 .996094.4248182.996094.9960938v25.1816411c-.310677-.120189-.620182-.179688-.996094-.179688-.823332 0-1.301605.290882-1.482422.384766-.239244-.418394-1.038141-1.356924-2.519531-1.388672-.539221.03024-.632001.06271-1.003906.173828v-4.166016h2.990234c.553058-.0021.99934-.452838.996094-1.005859-.0021-.549241-.446853-.993978-.996094-.996094h-2.990234c0-1.644662-1.351433-3.003906-2.996094-3.003906s-3.005859 1.359244-3.005859 3.003906h-8.998047c-.549203.0021-.99394.446853-.996094.996094-.0033.553021.443073 1.003743.996094 1.005859h8.998047v9.261719l-1.179688-2.042969c-.960831-1.664012-3.113104-2.246063-4.777344-1.285156-1.135181.65537-1.717136 1.846135-1.710937 3.0625h-25.775391c-.460876-.505172-.877988-.915108-1.152343-1.248047-.311812-.378444-.400391-.582416-.400391-.75v-4.305962c-.042709-1.423611-.420775-2.599049-.996094-3.510444zm38.998047-18.1835939c-1.644661 0-3.005859 1.351432-3.005859 2.9960939h-8.998047c-.553021.0022-.999344.452801-.996094 1.005859.0022.549204.446891.99394.996094.996094h8.998047c0 1.644624 1.361198 2.996094 3.005859 2.996094 1.644624 0 2.996094-1.351432 2.996094-2.996094h3.003906c.549203-.0022.993936-.44689.996094-.996094.003299-.553058-.443074-1.003705-.996094-1.005859h-3.003906c0-1.6446619-1.35147-2.9960939-2.996094-2.9960939zm0 1.9999999c.571276 0 .996094.424818.996094.996094v2.001953c0 .571276-.424818 1.003906-.996094 1.003906s-1.005859-.43263-1.005859-1.003906v-2.001953c0-.571276.434583-.996094 1.005859-.996094zm-25.998047.996094c-6.063081 0-10.998047 4.936881-10.998047 11v4c-.0032.55302.443073 1.003666.996094 1.005859h19.994141c.556837.0032 1.009072-.449022 1.005859-1.005859v-4c0-6.063119-4.934929-11-10.998047-11zm-1.003906 2.056641v.949218c.0022.552265.451641.998249 1.003906.996094.549241-.0022.993978-.44689.996094-.996094v-.949218c1.739944.190488 3.328369.87217 4.623047 1.90625l-.673828.673828c-.393033.390954-.393033 1.027014 0 1.417968.390917.393033 1.027014.393033 1.417968 0l.673828-.673828c1.03408 1.294678 1.71396 2.883103 1.904297 4.623047h-.939453c-.552264-.0022-1.001752.443829-1.003906.996094-.0022.555326.44858 1.00606 1.003906 1.003906h.994141v2h-4.994141c0-.995641-.371171-1.910478-.980468-2.613281l1.68164-1.681641c.387818-.390047.387818-1.020108 0-1.410156-.185575-.186709-.437739-.293032-.701172-.294922-.266078.000038-.52133.106324-.708984.294922l-1.949219 1.939453c-.42051-.151559-.873313-.234375-1.34375-.234375-2.197229 0-4 1.802771-4 4h-4.998047v-2h.996094c.552264-.0022.998285-.451641.996094-1.003906-.002101-.549241-.446853-.993978-.996094-.996094h-.941406c.190488-1.739944.872133-3.32837 1.90625-4.623047l.673828.673828c.390047.387818 1.020109.387818 1.410156 0 .392995-.390954.392995-1.027014 0-1.417968l-.669922-.669922c1.293543-1.034494 2.880332-1.71846 4.619141-1.910156zm18.998047 1.945312c-1.644624 0-2.996094 1.351433-2.996094 2.996094h-1.003906c-.553021.0022-.999344.4528-.996094 1.005859.0022.549203.446891.99394.996094.996094h1.003906c0 1.644624 1.35147 3.003906 2.996094 3.003906 1.644661 0 3.005859-1.359282 3.005859-3.003906h10.998047c.549203-.0022.993936-.446891.996094-.996094.003299-.553059-.443074-1.003705-.996094-1.005859h-10.998047c0-1.644661-1.361198-2.996094-3.005859-2.996094zm0 2c.571275 0 1.005859.424818 1.005859.996094v2.001953c0 .571276-.434584 1.003906-1.005859 1.003906-.571276 0-.996094-.43263-.996094-1.003906v-2.001953c0-.571276.424818-.996094.996094-.996094zm-36.9941409 5.8125v11.193359c.00106.549997.4461347.995893.9960938.998047.5530582.0022 1.002848-.444988 1.0039062-.998047v-7.298828c0-.480604.1085801-.549257.2363281-.61914.1277481-.06992.4242944-.112498.8261719.05078.8036788.326551 1.8676788 1.422437 1.9335938 3.601562v4.259767c0 .832365.4211132 1.499936.8574219 2.029297.4363082.52936.9315012.991454 1.3945312 1.513672.926022 1.044431 1.744936 2.230537 1.75 4.458984.0022.552265.451641.998248 1.003906.996094.549241-.0022.99394-.446891.996094-.996094h5.271484c-.137574 1.422879-.537365 2.715711-.960937 3.904297-.396321 1.112164-.663091 2.088585-.855469 3.09375h-13.4570311v-3.005859c0-.749972-.2180995-1.515006-.5097657-2.435547-.2914015-.920584-.6755997-1.948825-1.0488281-2.996094-.7464567-2.094539-1.4394531-4.3313-1.4394531-5.396484v-8.509766c0-.78901.1908923-1.777984.671875-2.568359.312189-.513105.7267143-.956214 1.3300781-1.275391zm18.9999999.189453c1.116396 0 2 .88364 2 2h-4c0-1.11636.88364-2 2-2zm26.994141 2v12.998047c.03024 1.30405 1.971049 1.30405 2 0v-4c0-.571276.43263-1.005859 1.003906-1.005859s.996094.434583.996094 1.005859v4c.03024 1.304013 1.971045 1.304013 2 0v-3.003906c0-.571314.434546-.996094 1.005859-.996094.571276 0 .996094.42478.996094.996094v3.003906c.03024 1.304013 1.971052 1.304013 2 0v-2c0-.571276.424814-1.003906.996094-1.003906.571271 0 1.003906.43263 1.003906 1.003906v8.998047c0 1.277707-.425253 2.368907-.914063 3.46875-.3617.81377-.782298 1.62623-.976562 2.533203h-12.490234l-7.09961-14.224609c-.411855-.825033-.218057-1.681973.515625-2.105469.734551-.424101 1.628634-.18745 2.052735.546875l3.048828 5.277344c.515036.865436 1.841951.512801 1.859375-.494141.000039-4.997308 0-10.005815 0-14.998043 0-.571279.434583-1.003753 1.005859-1.003908s.996094.432625.996094 1.003904zm-35.984375 12.998047h24.876953l.998047 2h-25.115235c-.178015-.756472-.44512-1.419313-.759765-2zm-9.0136721 13h14.0039061c.571238 0 .996094.424856.996094.996094v8.998047c0 .571275-.424856 1.003906-.996094 1.003906h-14.0039061c-.5712378 0-.9960938-.432631-.9960938-1.003906v-8.998047c0-.571238.424856-.996094.9960938-.996094zm42.0000001 2h13.996094c.571271 0 1.003906.424818 1.003906.996094v6.998047c0 .571275-.432635 1.003906-1.003906 1.003906h-13.996094c-.571276 0-1.003906-.432631-1.003906-1.003906v-6.998047c0-.571276.43263-.996094 1.003906-.996094z" transform="scale(.265)"/></g></svg>