<svg id="Layer_1" enable-background="new 0 0 64 64" height="512" viewBox="0 0 64 64" width="512" xmlns="http://www.w3.org/2000/svg"><g><path d="m59.35 21.62c-.86-2.3-2.03-4.47-3.45-6.46 1.43-1.98 1.27-4.76-.51-6.55-1.98-1.98-5.19-1.98-7.17 0-.96.96-1.49 2.23-1.49 3.58s.53 2.63 1.49 3.58c.96.96 2.23 1.48 3.58 1.48.77 0 1.5-.19 2.17-.5 1.24 1.78 2.27 3.7 3.03 5.74 3.73 9.84 1.34 21-6.08 28.43-7.43 7.43-18.59 9.82-28.43 6.08-.64-.25-1.37.08-1.61.73-.25.65.08 1.37.73 1.61 3.37 1.28 6.89 1.9 10.38 1.9 7.63 0 15.13-2.98 20.71-8.56 8.12-8.11 10.73-20.31 6.65-31.06zm-9.36-7.61c-.49-.48-.75-1.13-.75-1.82s.27-1.33.75-1.82c.5-.5 1.16-.75 1.82-.75s1.32.25 1.82.75c1 1 1 2.63 0 3.63-.97.98-2.67.98-3.64.01z"/><path d="m12.19 46.74c-.76 0-1.49.18-2.16.5-1.24-1.78-2.27-3.7-3.03-5.74-3.73-9.84-1.35-21 6.08-28.43s18.59-9.82 28.43-6.08c.64.25 1.37-.08 1.61-.73s-.08-1.37-.73-1.61c-10.76-4.08-22.96-1.47-31.08 6.65-8.13 8.13-10.74 20.33-6.66 31.08.86 2.3 2.03 4.47 3.44 6.46-.63.86-.98 1.88-.98 2.97 0 1.35.53 2.63 1.49 3.58.99.99 2.29 1.48 3.58 1.48s2.6-.49 3.58-1.48c1.98-1.98 1.98-5.19 0-7.17-.94-.95-2.22-1.48-3.57-1.48zm1.82 6.89c-1 1-2.63 1-3.63 0-.49-.49-.75-1.13-.75-1.82s.27-1.33.75-1.82 1.13-.75 1.82-.75 1.33.27 1.82.75c.99 1.01.99 2.64-.01 3.64z"/><path d="m10.66 32c0 11.77 9.57 21.34 21.34 21.34s21.34-9.57 21.34-21.34-9.57-21.34-21.34-21.34-21.34 9.57-21.34 21.34zm24.9-18.49c1.11 2.75 2.06 6.74 2.53 11.73-1.93.28-3.98.43-6.09.43s-4.15-.15-6.09-.43c.46-5 1.42-8.98 2.53-11.73 1.15-.22 2.34-.35 3.56-.35s2.41.12 3.56.35zm15.28 18.49c0 2.79-.62 5.42-1.71 7.8-2.17-1.36-5.08-2.42-8.4-3.11.1-1.56.16-3.14.16-4.7s-.06-3.14-.16-4.7c3.32-.68 6.22-1.75 8.4-3.11 1.09 2.4 1.71 5.03 1.71 7.82zm-12.45 0c0 1.49-.05 2.91-.12 4.27-2-.28-4.11-.44-6.27-.44s-4.26.15-6.27.44c-.08-1.36-.12-2.78-.12-4.27s.05-2.91.12-4.27c2 .28 4.11.44 6.27.44s4.26-.15 6.27-.44c.07 1.36.12 2.78.12 4.27zm-25.23 0c0-2.79.62-5.42 1.71-7.8 2.17 1.36 5.08 2.42 8.4 3.11-.1 1.56-.16 3.14-.16 4.7s.06 3.14.16 4.7c-3.32.68-6.22 1.75-8.4 3.11-1.09-2.4-1.71-5.03-1.71-7.82zm12.37-17.68c-.99 3-1.68 6.64-2.06 10.48-2.97-.63-5.54-1.6-7.41-2.81 2.21-3.5 5.53-6.22 9.47-7.67zm-9.47 27.68c1.87-1.22 4.44-2.18 7.41-2.81.38 3.84 1.07 7.48 2.06 10.48-3.94-1.44-7.26-4.16-9.47-7.67zm12.38 8.49c-1.11-2.75-2.06-6.74-2.53-11.73 1.93-.28 3.98-.43 6.09-.43s4.15.15 6.09.43c-.46 5-1.42 8.98-2.53 11.73-1.15.22-2.34.35-3.56.35s-2.41-.12-3.56-.35zm10.03-.81c.99-3 1.68-6.64 2.06-10.48 2.97.63 5.54 1.6 7.41 2.81-2.21 3.5-5.53 6.22-9.47 7.67zm9.47-27.68c-1.87 1.22-4.44 2.18-7.41 2.81-.38-3.84-1.07-7.48-2.06-10.48 3.94 1.44 7.26 4.16 9.47 7.67z"/></g></svg>