<svg id="Capa_1" enable-background="new 0 0 512 512" height="512" viewBox="0 0 512 512" width="512" xmlns="http://www.w3.org/2000/svg"><g><path d="m121.501 203.773h68.558c7.23 0 13.113-5.882 13.113-13.112v-48.908c0-8.515-8.316-14.868-16.532-12.651-17.94 4.832-35.607-10.028-34.383-28.445 1.122-16.876 17.903-29.049 34.337-24.653 8.209 2.194 16.578-4.054 16.578-12.604v-50.288c0-7.23-5.882-13.112-13.113-13.112h-160.79c-16.139 0-29.269 13.161-29.269 29.338v30.688c0 4.143 3.358 7.5 7.5 7.5s7.5-3.357 7.5-7.5v-30.688c0-7.906 6.401-14.338 14.269-14.338h158.903v45.966c-24.74-5.145-49.205 13.462-50.882 38.696-1.821 27.377 23.925 50.092 50.882 44.487v44.624h-78.641c-5.488 0-9.796 6.619-6.13 11.821 13.109 18.596-1.676 44.78-24.273 43.255-20.863-1.422-32.553-26.044-20.42-43.255 3.666-5.202-.643-11.821-6.13-11.821h-37.578v-98.8c0-4.143-3.358-7.5-7.5-7.5s-7.5 3.357-7.5 7.5v100.688c0 7.23 5.882 13.112 13.112 13.112h27.482c-7.981 25.579 10.72 53.216 37.514 55.041 29.174 1.991 52.105-27.091 43.393-55.041z"/><path d="m482.731 119.452h-160.791c-7.23 0-13.112 5.882-13.112 13.112v47.859c-24.74-5.149-49.204 13.454-50.882 38.69-1.82 27.374 23.926 50.101 50.882 44.48v44.632h-69.33c-4.3 0-8.321 2.109-10.756 5.643-2.467 3.579-3.011 8.156-1.456 12.243 6.408 16.836-5.575 35.958-23.65 37.189-19.616 1.347-34.544-18.744-27.49-37.219 1.554-4.068 1.013-8.629-1.446-12.201-2.438-3.541-6.465-5.655-10.771-5.655h-30.16c-7.23 0-13.112 5.882-13.112 13.112v161.323c0 16.177 13.13 29.338 29.269 29.338h332.806c16.138.002 29.268-13.159 29.268-29.336v-42.087c0-4.143-3.357-7.5-7.5-7.5s-7.5 3.357-7.5 7.5v42.087c0 7.906-6.4 14.338-14.269 14.338h-158.903v-29.665c0-6.185-6.824-9.302-11.506-6.341-13.376 8.45-31.868-1.786-31.76-17.772.106-15.868 18.172-26.097 31.76-17.512 4.935 3.119 11.506-.389 11.506-6.341v-96.143h50.086c5.925 0 9.537-6.85 6.188-11.738-4.202-6.135-6.449-13.475-6.449-20.92.058-48.465 73.465-48.41 73.523 0 0 7.446-2.247 14.786-6.449 20.92-3.562 5.202.733 11.738 6.188 11.738h50.085v87.417c0 4.143 3.357 7.5 7.5 7.5s7.5-3.357 7.5-7.5v-261.852c0-16.178-13.13-29.339-29.269-29.339zm-173.903 358.929v18.619h-158.903c-7.868 0-14.269-6.432-14.269-14.338v-159.435h25.612c-8.693 27.851 14.188 57.044 43.388 55.04 26.791-1.825 45.5-29.454 37.498-55.04h66.674v85.085c-20.205-4.349-40.797 10.429-43.047 31.026-2.597 23.783 19.411 44.149 43.047 39.043zm150.289-170.154c2.019-5.604 3.06-11.544 3.06-17.613 0-68.578-104.438-67.899-103.51.703.077 5.824 1.104 11.524 3.044 16.91h-37.883v-55.203c-1.164-6.342-4.824-8.556-10.981-6.643-18.687 9.791-41.327-5.327-39.934-26.271 1.286-19.328 22.678-31.508 39.934-22.469 6.157 1.912 9.818-.302 10.981-6.644v-56.545h158.903c7.868 0 14.269 6.433 14.269 14.339v159.436z"/><path d="m273.5 147.667c0 4.143 3.357 7.5 7.5 7.5s7.5-3.357 7.5-7.5v-31.495l43.586-43.586h98.033c3.247 11.021 13.45 19.092 25.509 19.092 14.663 0 26.592-11.929 26.592-26.592s-11.929-26.593-26.592-26.593c-12.059 0-22.262 8.071-25.509 19.093h-101.14c-1.989 0-3.896.79-5.304 2.196l-47.979 47.979c-1.406 1.407-2.196 3.314-2.196 5.304zm182.128-94.174c6.392 0 11.592 5.2 11.592 11.593 0 6.392-5.2 11.592-11.592 11.592-6.393 0-11.593-5.2-11.593-11.592 0-6.393 5.2-11.593 11.593-11.593z"/><path d="m239.408 52.101v107.566c0 4.143 3.358 7.5 7.5 7.5s7.5-3.357 7.5-7.5v-107.566c11.021-3.246 19.092-13.449 19.092-25.508 0-14.663-11.93-26.593-26.592-26.593-14.663 0-26.593 11.93-26.593 26.593 0 12.059 8.071 22.261 19.093 25.508zm7.5-37.101c6.392 0 11.592 5.2 11.592 11.593 0 6.333-5.107 11.489-11.418 11.583-.058-.001-.115-.009-.174-.009s-.116.007-.174.009c-6.311-.094-11.419-5.25-11.419-11.583 0-6.393 5.201-11.593 11.593-11.593z"/><path d="m189.092 249.5c0-14.663-11.929-26.593-26.592-26.593s-26.592 11.93-26.592 26.593 11.929 26.593 26.592 26.593c4.61 0 8.949-1.181 12.733-3.253l18.267 18.267v36.893c0 4.143 3.358 7.5 7.5 7.5s7.5-3.357 7.5-7.5v-40c0-1.989-.79-3.896-2.197-5.304l-20.464-20.464c2.073-3.784 3.253-8.122 3.253-12.732zm-38.184 0c0-6.393 5.2-11.593 11.592-11.593s11.592 5.2 11.592 11.593-5.2 11.593-11.592 11.593-11.592-5.2-11.592-11.593z"/></g></svg>