<?xml version="1.0" encoding="UTF-8"?>
<svg id="Layer_1" data-name="Layer 1" xmlns="http://www.w3.org/2000/svg" xmlns:xlink="http://www.w3.org/1999/xlink" viewBox="0 0 1971.94 865.6">
  <defs>
    <style>
      .cls-1 {
        fill: #001763;
      }

      .cls-2 {
        fill: none;
      }

      .cls-3 {
        clip-path: url(#clippath-1);
      }

      .cls-4 {
        clip-path: url(#clippath);
      }
    </style>
    <clipPath id="clippath">
      <rect class="cls-2" x="19.15" y="9.1" width="1889.95" height="856.5"/>
    </clipPath>
    <clipPath id="clippath-1">
      <rect class="cls-2" x="19.15" y="9.1" width="1889.95" height="856.5"/>
    </clipPath>
  </defs>
  <g id="Artwork_18" data-name="Artwork 18">
    <g class="cls-4">
      <polygon class="cls-1" points="1728.09 26.08 1692.38 26.08 1692.38 13.18 1779.32 13.18 1779.32 26.08 1743.43 26.08 1743.43 130.59 1728.13 130.59 1728.09 26.08"/>
      <g class="cls-3">
        <path class="cls-1" d="M1891.34,79.04c-.87-16.37-1.91-36.06-1.74-50.67h-.53c-4.01,13.76-8.88,28.4-14.81,44.6l-20.73,56.97h-11.47l-18.99-55.92c-5.57-16.55-10.28-31.71-13.59-45.65h-.34c-.35,14.63-1.23,34.32-2.27,51.92l-3.16,50.31h-14.46l8.18-117.43h19.34l20.08,56.8c4.89,14.46,8.89,27.36,11.85,39.55h.53c2.96-11.85,7.14-24.73,12.37-39.55l20.9-56.8h19.27l7.33,117.43h-14.8l-2.96-51.55Z"/>
        <path class="cls-1" d="M1187.79,583.26c-35.3,34.18-83.84,56.1-138.46,58.33-114.31,2.35-451.55,0-515.83,0,.25-55.48,0-156.17,0-156.17,0,0,310.24.62,423.44,0,66.63-.87,66.63-101.68,0-101.68-15.11,0-228.13,1.86-243.36,0-106.51-12.75-181.69-91.65-180.32-192.83.12-13.13,1.61-26.13,4.33-38.89L731.91,9.6h519.54c-34.68,15.73-66.01,37.9-94.74,67.13-26.75,26.63-47.93,57.71-63.16,91.65-110.23.74-289.56-.37-297.24,0-62.91,3.1-56.6,96.97-.99,101.18,12.63.87,154.44-2.85,239.03,0,10.77.37,21.3.99,31.58,2.1-2.35,23.16-2.11,46.57.37,69.85.37,4.09.87,8.3,1.49,12.38,3.96,31.09,12.14,62.42,24.4,93.01,22.04,55.11,55.11,101.43,95.61,136.36"/>
        <path class="cls-1" d="M1649.99,641.59c-79.02,2.1-171.16,1.49-270.11-1.49-265.28-4.58-396.69-366.22-210.79-550.88,27.04-27.52,55.04-47.16,83.97-61.05,25.78-12.38,54.12-18.46,82.72-18.46h312.61c-.37,59.08.12,159.27.12,159.27,0,0-169.67-.5-252.28.87l.37.49c-86.43,1.89-155.68,73.89-153.26,161.36,2.37,85.84,76.22,152.59,162.1,152.59h244.55c-.25,17.22-.12,38.27,0,59.45.37,43.72.87,87.81,0,97.84"/>
        <path class="cls-1" d="M515.3,485.43v156.9S227.23,372.35,185.25,372.35c-31.34,0-.99,269.3-.99,269.3l-158.15.37v-13.38s19.44-189.42,18.95-352.53c-.37-134.99-22.54-255.25-22.54-255.25l-1.98-11.02,163.85-.5s-36.53,250.55.37,249.55c66.38-1.98,300.7-249.18,300.7-249.18l217.4-.62s-377.77,267.72-382.49,295.25c-2.74,15.99,95.86,103.3,194.94,181.08"/>
        <path class="cls-1" d="M1649.99,484.31v59.45c-.12-21.18-.25-42.23,0-59.45"/>
        <polygon class="cls-1" points="49.64 827.26 35.6 841.68 35.6 864.34 19.15 864.34 19.15 775.76 35.6 775.76 35.6 821.18 79.38 775.76 97.86 775.76 60.65 815.37 100.13 864.34 80.9 864.34 49.64 827.26"/>
        <path class="cls-1" d="M168.84,843.84h-44.3l-8.73,20.5h-16.96l39.86-88.58h16.2l39.99,88.58h-17.21l-8.86-20.5ZM163.4,830.93l-16.71-38.72-16.58,38.72h33.28Z"/>
        <polygon class="cls-1" points="223.5 789.68 194.14 789.68 194.14 775.76 269.3 775.76 269.3 789.68 239.95 789.68 239.95 864.34 223.5 864.34 223.5 789.68"/>
        <path class="cls-1" d="M283.09,825.74v-49.98h16.45v49.35c0,18.22,8.22,26.07,22.52,26.07s22.4-7.84,22.4-26.07v-49.35h16.2v49.98c0,25.81-14.55,39.86-38.72,39.86s-38.84-14.05-38.84-39.86"/>
        <polygon class="cls-1" points="466.18 775.76 466.18 864.33 452.64 864.33 403.8 804.35 403.8 864.33 387.47 864.33 387.47 775.76 401.01 775.76 449.85 835.74 449.85 775.76 466.18 775.76"/>
        <path class="cls-1" d="M525,854.97l5.69-12.78c7.09,5.69,18.35,9.74,29.23,9.74,13.8,0,19.61-4.94,19.61-11.52,0-19.11-52.64-6.58-52.64-39.48,0-14.29,11.39-26.44,35.69-26.44,10.63,0,21.76,2.78,29.48,7.84l-5.19,12.78c-7.97-4.68-16.7-6.96-24.42-6.96-13.66,0-19.23,5.32-19.23,12.02,0,18.86,52.51,6.58,52.51,39.1,0,14.17-11.52,26.32-35.81,26.32-13.79,0-27.58-4.3-34.92-10.63"/>
        <path class="cls-1" d="M1240.93,854.97l5.69-12.78c7.09,5.69,18.35,9.74,29.23,9.74,13.8,0,19.61-4.94,19.61-11.52,0-19.11-52.64-6.58-52.64-39.48,0-14.29,11.39-26.44,35.69-26.44,10.63,0,21.76,2.78,29.48,7.84l-5.19,12.78c-7.97-4.68-16.7-6.96-24.42-6.96-13.66,0-19.23,5.32-19.23,12.02,0,18.86,52.51,6.58,52.51,39.1,0,14.17-11.52,26.32-35.81,26.32-13.79,0-27.58-4.3-34.92-10.63"/>
        <path class="cls-1" d="M609.52,820.05c0-26.19,20.25-45.55,47.7-45.55s47.71,19.23,47.71,45.55-20.25,45.55-47.71,45.55-47.7-19.36-47.7-45.55M688.36,820.05c0-18.1-13.29-31.13-31.13-31.13s-31.13,13.03-31.13,31.13,13.29,31.13,31.13,31.13,31.13-13.03,31.13-31.13"/>
        <polygon class="cls-1" points="726.18 775.76 742.63 775.76 742.63 850.41 788.95 850.41 788.95 864.33 726.18 864.33 726.18 775.76"/>
        <path class="cls-1" d="M803.75,825.74v-49.98h16.45v49.35c0,18.22,8.22,26.07,22.52,26.07s22.4-7.84,22.4-26.07v-49.35h16.2v49.98c0,25.81-14.55,39.86-38.72,39.86s-38.84-14.05-38.84-39.86"/>
        <polygon class="cls-1" points="924.45 789.68 895.1 789.68 895.1 775.76 970.26 775.76 970.26 789.68 940.9 789.68 940.9 864.34 924.45 864.34 924.45 789.68"/>
        <rect class="cls-1" x="986.45" y="775.76" width="16.45" height="88.58"/>
        <path class="cls-1" d="M1024.27,820.05c0-26.19,20.25-45.55,47.7-45.55s47.71,19.23,47.71,45.55-20.25,45.55-47.71,45.55-47.7-19.36-47.7-45.55M1103.11,820.05c0-18.1-13.29-31.13-31.13-31.13s-31.13,13.03-31.13,31.13,13.29,31.13,31.13,31.13,31.13-13.03,31.13-31.13"/>
        <polygon class="cls-1" points="1219.64 775.76 1219.64 864.33 1206.1 864.33 1157.26 804.35 1157.26 864.33 1140.93 864.33 1140.93 775.76 1154.47 775.76 1203.32 835.74 1203.32 775.76 1219.64 775.76"/>
        <path class="cls-1" d="M1370.49,820.05c0-26.45,20.25-45.55,47.45-45.55,14.43,0,26.83,5.19,35.05,14.8l-10.63,10c-6.45-6.96-14.43-10.38-23.66-10.38-18.35,0-31.64,12.91-31.64,31.13s13.29,31.13,31.64,31.13c9.24,0,17.21-3.42,23.66-10.5l10.63,10.13c-8.23,9.61-20.62,14.8-35.18,14.8-27.08,0-47.33-19.11-47.33-45.55"/>
        <polygon class="cls-1" points="1536.48 850.54 1536.48 864.34 1470.05 864.34 1470.05 775.76 1534.71 775.76 1534.71 789.55 1486.5 789.55 1486.5 812.58 1529.27 812.58 1529.27 826.12 1486.5 826.12 1486.5 850.54 1536.48 850.54"/>
        <polygon class="cls-1" points="1637.32 775.76 1637.32 864.33 1623.78 864.33 1574.94 804.35 1574.94 864.33 1558.61 864.33 1558.61 775.76 1572.16 775.76 1621 835.74 1621 775.76 1637.32 775.76"/>
        <polygon class="cls-1" points="1682.87 789.68 1653.51 789.68 1653.51 775.76 1728.67 775.76 1728.67 789.68 1699.32 789.68 1699.32 864.34 1682.87 864.34 1682.87 789.68"/>
        <polygon class="cls-1" points="1811.29 850.54 1811.29 864.34 1744.86 864.34 1744.86 775.76 1809.52 775.76 1809.52 789.55 1761.31 789.55 1761.31 812.58 1804.08 812.58 1804.08 826.12 1761.31 826.12 1761.31 850.54 1811.29 850.54"/>
        <path class="cls-1" d="M1891.39,864.34l-18.09-25.94c-1.14.12-2.28.12-3.42.12h-19.99v25.81h-16.45v-88.58h36.44c23.29,0,37.71,11.89,37.71,31.51,0,13.41-6.83,23.28-18.85,27.97l20.37,29.1h-17.72ZM1869.12,789.68h-19.24v35.31h19.24c14.42,0,21.89-6.58,21.89-17.71s-7.47-17.59-21.89-17.59"/>
      </g>
    </g>
  </g>
</svg>