<?xml version="1.0" encoding="UTF-8"?>
<svg id="Capa_3" data-name="Capa 3" xmlns="http://www.w3.org/2000/svg" viewBox="0 0 979.27 416.19">
  <defs>
    <style>
      .cls-1 {
        fill: #1e3052;
      }
    </style>
  </defs>
  <g>
    <path class="cls-1" d="M0,7.82h67.78v127.73L187.25,7.82h88.63l-136.86,142.94,148.59,164.66h-94.71l-125.12-145.98v145.98H0V7.82Z"/>
    <path class="cls-1" d="M296.3,7.82h73.86l49.09,197.25h.87L484.42,7.82h63l63.87,202.46h.87L663.85,7.82h68.65l-89.93,307.6h-60.39l-67.78-212.89h-.87l-67.78,212.89h-58.22L296.3,7.82Z"/>
    <path class="cls-1" d="M932.35,82.98c-5.5-6.95-12.97-12.09-22.38-15.42-9.42-3.33-18.32-5-26.72-5-4.93,0-9.99.58-15.21,1.74-5.21,1.16-10.14,2.97-14.77,5.43-4.64,2.46-8.4,5.72-11.3,9.78-2.9,4.06-4.34,8.98-4.34,14.77,0,9.27,3.48,16.37,10.43,21.29,6.95,4.93,15.71,9.12,26.28,12.6,10.57,3.48,21.94,6.95,34.11,10.43,12.17,3.48,23.53,8.4,34.11,14.77,10.57,6.37,19.33,14.92,26.29,25.63,6.95,10.72,10.43,25.06,10.43,43.01s-3.19,32.01-9.56,44.75c-6.38,12.75-14.99,23.32-25.85,31.72-10.86,8.4-23.46,14.63-37.8,18.68-14.34,4.05-29.48,6.08-45.4,6.08-19.98,0-38.52-3.04-55.61-9.12-17.09-6.08-33.02-15.93-47.79-29.54l48.23-53c6.95,9.27,15.71,16.44,26.28,21.51,10.57,5.07,21.51,7.6,32.8,7.6,5.5,0,11.08-.65,16.73-1.96,5.65-1.3,10.71-3.26,15.21-5.87,4.49-2.61,8.11-5.93,10.86-9.99,2.75-4.05,4.13-8.83,4.13-14.34,0-9.27-3.55-16.58-10.64-21.94-7.1-5.36-16.01-9.92-26.72-13.69-10.72-3.76-22.31-7.53-34.76-11.3-12.46-3.76-24.04-8.83-34.76-15.21-10.72-6.37-19.63-14.77-26.72-25.2-7.1-10.43-10.64-24.18-10.64-41.27s3.26-30.99,9.78-43.45c6.52-12.45,15.21-22.88,26.07-31.28,10.86-8.4,23.39-14.7,37.58-18.9,14.19-4.2,28.82-6.3,43.88-6.3,17.38,0,34.17,2.46,50.4,7.39,16.22,4.93,30.85,13.18,43.88,24.76l-46.49,50.83Z"/>
  </g>
  <g>
    <path class="cls-1" d="M32.25,380.94h7.57v14.27l13.35-14.27h9.9l-15.29,15.97,16.6,18.4h-10.58l-13.98-16.31v16.31h-7.57v-34.38Z"/>
    <path class="cls-1" d="M83.18,380.94h6.26l14.95,34.38h-8.54l-2.96-7.28h-13.35l-2.86,7.28h-8.35l14.86-34.38ZM86.09,390.94l-4.18,10.68h8.4l-4.22-10.68Z"/>
    <path class="cls-1" d="M114.88,387.64h-9.81v-6.7h27.19v6.7h-9.81v27.67h-7.57v-27.67Z"/>
    <path class="cls-1" d="M169.94,402.06c0,2.04-.31,3.92-.92,5.63-.62,1.72-1.53,3.21-2.74,4.47-1.21,1.26-2.73,2.25-4.54,2.96-1.81.71-3.9,1.07-6.26,1.07s-4.5-.36-6.31-1.07c-1.81-.71-3.33-1.7-4.54-2.96-1.21-1.26-2.13-2.75-2.74-4.47-.62-1.71-.92-3.59-.92-5.63v-21.12h7.57v20.83c0,1.07.17,2.06.51,2.96s.82,1.69,1.43,2.35c.61.66,1.35,1.18,2.21,1.55.86.37,1.79.56,2.79.56s1.93-.19,2.77-.56c.84-.37,1.57-.89,2.18-1.55.61-.66,1.09-1.45,1.43-2.35s.51-1.89.51-2.96v-20.83h7.57v21.12Z"/>
    <path class="cls-1" d="M181.79,380.94h10.29l14.61,23.89h.1v-23.89h7.57v34.38h-9.9l-15-24.47h-.1v24.47h-7.57v-34.38Z"/>
    <path class="cls-1" d="M241.85,380.94h8.25l5.49,22.04h.1l7.19-22.04h7.04l7.14,22.62h.1l5.78-22.62h7.67l-10.05,34.38h-6.75l-7.57-23.79h-.1l-7.57,23.79h-6.51l-10.2-34.38Z"/>
    <path class="cls-1" d="M297,398.13c0-2.75.46-5.24,1.38-7.48.92-2.23,2.21-4.13,3.86-5.71,1.65-1.57,3.61-2.78,5.87-3.62,2.27-.84,4.74-1.26,7.43-1.26s5.16.42,7.43,1.26c2.27.84,4.22,2.05,5.88,3.62,1.65,1.57,2.94,3.47,3.86,5.71.92,2.23,1.38,4.73,1.38,7.48s-.46,5.24-1.38,7.48c-.92,2.23-2.21,4.13-3.86,5.7-1.65,1.57-3.61,2.78-5.88,3.62-2.27.84-4.74,1.26-7.43,1.26s-5.16-.42-7.43-1.26c-2.27-.84-4.22-2.05-5.87-3.62-1.65-1.57-2.94-3.47-3.86-5.7-.92-2.23-1.38-4.73-1.38-7.48ZM304.87,398.13c0,1.62.25,3.1.75,4.44.5,1.34,1.22,2.51,2.16,3.5.94.99,2.06,1.76,3.37,2.31,1.31.55,2.77.83,4.39.83s3.08-.28,4.39-.83c1.31-.55,2.44-1.32,3.37-2.31.94-.99,1.66-2.15,2.16-3.5.5-1.34.75-2.82.75-4.44s-.25-3.06-.75-4.42c-.5-1.36-1.22-2.53-2.16-3.52-.94-.99-2.06-1.75-3.37-2.31-1.31-.55-2.78-.83-4.39-.83s-3.08.28-4.39.83c-1.31.55-2.44,1.32-3.37,2.31-.94.99-1.66,2.16-2.16,3.52-.5,1.36-.75,2.83-.75,4.42Z"/>
    <path class="cls-1" d="M344.09,380.94h13.3c1.75,0,3.41.17,4.98.51,1.57.34,2.95.91,4.13,1.7,1.18.79,2.12,1.86,2.82,3.21.7,1.34,1.04,3.02,1.04,5.02,0,2.43-.63,4.49-1.89,6.19-1.26,1.7-3.11,2.78-5.53,3.23l8.74,14.52h-9.08l-7.19-13.74h-3.74v13.74h-7.57v-34.38ZM351.67,395.17h4.47c.68,0,1.4-.02,2.16-.07.76-.05,1.45-.19,2.06-.44.61-.24,1.12-.62,1.53-1.14.4-.52.61-1.25.61-2.18,0-.87-.18-1.57-.53-2.09-.36-.52-.81-.91-1.36-1.19-.55-.27-1.18-.46-1.89-.56-.71-.1-1.41-.15-2.09-.15h-4.95v7.82Z"/>
    <path class="cls-1" d="M380.7,380.94h7.57v14.27l13.35-14.27h9.9l-15.29,15.97,16.6,18.4h-10.58l-13.98-16.31v16.31h-7.57v-34.38Z"/>
    <path class="cls-1" d="M420.32,380.94h12.77c1.78,0,3.46.16,5.05.49,1.59.32,2.97.88,4.15,1.68,1.18.79,2.12,1.86,2.82,3.2.7,1.34,1.04,3.03,1.04,5.07s-.32,3.69-.97,5.05c-.65,1.36-1.54,2.44-2.67,3.25-1.13.81-2.48,1.38-4.03,1.72s-3.24.51-5.05.51h-5.54v13.4h-7.57v-34.38ZM427.89,395.51h5.05c.68,0,1.34-.06,1.97-.19.63-.13,1.2-.35,1.7-.66.5-.31.91-.73,1.21-1.26s.46-1.21.46-2.02c0-.87-.2-1.58-.61-2.11-.41-.53-.92-.95-1.55-1.24s-1.33-.48-2.11-.56c-.78-.08-1.52-.12-2.23-.12h-3.88v8.16Z"/>
    <path class="cls-1" d="M456.05,380.94h7.57v27.38h14.03v6.99h-21.61v-34.38Z"/>
    <path class="cls-1" d="M498,380.94h6.26l14.95,34.38h-8.54l-2.96-7.28h-13.35l-2.86,7.28h-8.35l14.86-34.38ZM500.92,390.94l-4.18,10.68h8.4l-4.22-10.68Z"/>
    <path class="cls-1" d="M550,389.88c-.75-.91-1.66-1.6-2.74-2.09-1.08-.49-2.34-.73-3.76-.73s-2.74.28-3.96.83c-1.21.55-2.27,1.32-3.16,2.31-.89.99-1.59,2.16-2.09,3.52s-.75,2.83-.75,4.42.25,3.1.75,4.44c.5,1.34,1.19,2.51,2.06,3.5s1.9,1.76,3.08,2.31c1.18.55,2.45.83,3.81.83,1.55,0,2.93-.32,4.13-.97,1.2-.65,2.18-1.55,2.96-2.72l6.31,4.71c-1.46,2.04-3.3,3.54-5.54,4.51-2.23.97-4.53,1.46-6.89,1.46-2.69,0-5.16-.42-7.43-1.26-2.27-.84-4.22-2.05-5.88-3.62-1.65-1.57-2.94-3.47-3.86-5.7-.92-2.23-1.38-4.73-1.38-7.48s.46-5.24,1.38-7.48c.92-2.23,2.21-4.13,3.86-5.71,1.65-1.57,3.61-2.78,5.88-3.62,2.26-.84,4.74-1.26,7.43-1.26.97,0,1.98.09,3.04.27,1.05.18,2.09.46,3.11.85,1.02.39,2,.91,2.94,1.55s1.78,1.44,2.53,2.38l-5.83,4.76Z"/>
    <path class="cls-1" d="M565.93,380.94h23.35v6.99h-15.78v6.41h14.91v6.99h-14.91v6.99h16.65v6.99h-24.23v-34.38Z"/>
    <path class="cls-1" d="M637.3,389.34c-.62-.78-1.45-1.35-2.5-1.72-1.05-.37-2.05-.56-2.99-.56-.55,0-1.12.06-1.7.19-.58.13-1.13.33-1.65.61-.52.28-.94.64-1.26,1.09s-.49,1-.49,1.65c0,1.04.39,1.83,1.17,2.38.78.55,1.75,1.02,2.94,1.41s2.45.78,3.81,1.17,2.63.94,3.81,1.65,2.16,1.67,2.94,2.86c.78,1.2,1.17,2.8,1.17,4.81s-.36,3.58-1.07,5c-.71,1.42-1.67,2.61-2.89,3.54-1.21.94-2.62,1.63-4.22,2.09-1.6.45-3.29.68-5.07.68-2.23,0-4.3-.34-6.21-1.02-1.91-.68-3.69-1.78-5.34-3.3l5.39-5.92c.78,1.04,1.76,1.84,2.94,2.4s2.4.85,3.67.85c.61,0,1.24-.07,1.87-.22s1.2-.36,1.7-.66c.5-.29.91-.66,1.21-1.12.31-.45.46-.99.46-1.6,0-1.04-.4-1.85-1.19-2.45-.79-.6-1.79-1.11-2.99-1.53-1.2-.42-2.49-.84-3.88-1.26-1.39-.42-2.69-.99-3.88-1.7-1.2-.71-2.19-1.65-2.99-2.82-.79-1.17-1.19-2.7-1.19-4.61s.36-3.46,1.09-4.85,1.7-2.56,2.91-3.5c1.21-.94,2.61-1.64,4.2-2.11,1.59-.47,3.22-.7,4.9-.7,1.94,0,3.82.28,5.63.83,1.81.55,3.45,1.47,4.9,2.77l-5.19,5.68Z"/>
    <path class="cls-1" d="M651.18,398.13c0-2.75.46-5.24,1.38-7.48.92-2.23,2.21-4.13,3.86-5.71,1.65-1.57,3.61-2.78,5.88-3.62,2.26-.84,4.74-1.26,7.43-1.26s5.16.42,7.43,1.26,4.22,2.05,5.88,3.62c1.65,1.57,2.94,3.47,3.86,5.71.92,2.23,1.38,4.73,1.38,7.48s-.46,5.24-1.38,7.48c-.92,2.23-2.21,4.13-3.86,5.7-1.65,1.57-3.61,2.78-5.88,3.62-2.27.84-4.74,1.26-7.43,1.26s-5.16-.42-7.43-1.26c-2.27-.84-4.22-2.05-5.88-3.62-1.65-1.57-2.94-3.47-3.86-5.7-.92-2.23-1.38-4.73-1.38-7.48ZM659.05,398.13c0,1.62.25,3.1.75,4.44.5,1.34,1.22,2.51,2.16,3.5.94.99,2.06,1.76,3.37,2.31,1.31.55,2.78.83,4.39.83s3.08-.28,4.39-.83c1.31-.55,2.43-1.32,3.37-2.31.94-.99,1.66-2.15,2.16-3.5.5-1.34.75-2.82.75-4.44s-.25-3.06-.75-4.42-1.22-2.53-2.16-3.52c-.94-.99-2.06-1.75-3.37-2.31-1.31-.55-2.78-.83-4.39-.83s-3.08.28-4.39.83c-1.31.55-2.44,1.32-3.37,2.31-.94.99-1.66,2.16-2.16,3.52s-.75,2.83-.75,4.42Z"/>
    <path class="cls-1" d="M698.57,380.94h7.57v27.38h14.03v6.99h-21.61v-34.38Z"/>
    <path class="cls-1" d="M758.19,402.06c0,2.04-.31,3.92-.92,5.63-.62,1.72-1.53,3.21-2.74,4.47-1.21,1.26-2.73,2.25-4.54,2.96-1.81.71-3.9,1.07-6.26,1.07s-4.5-.36-6.31-1.07c-1.81-.71-3.33-1.7-4.54-2.96-1.21-1.26-2.13-2.75-2.74-4.47-.62-1.71-.92-3.59-.92-5.63v-21.12h7.57v20.83c0,1.07.17,2.06.51,2.96s.82,1.69,1.43,2.35c.61.66,1.35,1.18,2.21,1.55s1.79.56,2.79.56,1.93-.19,2.77-.56c.84-.37,1.57-.89,2.18-1.55.61-.66,1.09-1.45,1.43-2.35s.51-1.89.51-2.96v-20.83h7.57v21.12Z"/>
    <path class="cls-1" d="M776.69,387.64h-9.81v-6.7h27.19v6.7h-9.81v27.67h-7.57v-27.67Z"/>
    <path class="cls-1" d="M802.66,380.94h7.57v34.38h-7.57v-34.38Z"/>
    <path class="cls-1" d="M820.14,398.13c0-2.75.46-5.24,1.38-7.48.92-2.23,2.21-4.13,3.86-5.71,1.65-1.57,3.61-2.78,5.88-3.62,2.26-.84,4.74-1.26,7.43-1.26s5.16.42,7.43,1.26,4.22,2.05,5.88,3.62c1.65,1.57,2.94,3.47,3.86,5.71.92,2.23,1.38,4.73,1.38,7.48s-.46,5.24-1.38,7.48c-.92,2.23-2.21,4.13-3.86,5.7-1.65,1.57-3.61,2.78-5.88,3.62-2.27.84-4.74,1.26-7.43,1.26s-5.16-.42-7.43-1.26c-2.27-.84-4.22-2.05-5.88-3.62-1.65-1.57-2.94-3.47-3.86-5.7-.92-2.23-1.38-4.73-1.38-7.48ZM828.01,398.13c0,1.62.25,3.1.75,4.44.5,1.34,1.22,2.51,2.16,3.5.94.99,2.06,1.76,3.37,2.31,1.31.55,2.78.83,4.39.83s3.08-.28,4.39-.83c1.31-.55,2.43-1.32,3.37-2.31.94-.99,1.66-2.15,2.16-3.5.5-1.34.75-2.82.75-4.44s-.25-3.06-.75-4.42-1.22-2.53-2.16-3.52c-.94-.99-2.06-1.75-3.37-2.31-1.31-.55-2.78-.83-4.39-.83s-3.08.28-4.39.83c-1.31.55-2.44,1.32-3.37,2.31-.94.99-1.66,2.16-2.16,3.52s-.75,2.83-.75,4.42Z"/>
    <path class="cls-1" d="M867.23,380.94h10.29l14.61,23.89h.1v-23.89h7.57v34.38h-9.9l-15-24.47h-.1v24.47h-7.57v-34.38Z"/>
    <path class="cls-1" d="M928.65,389.34c-.62-.78-1.45-1.35-2.5-1.72-1.05-.37-2.05-.56-2.99-.56-.55,0-1.12.06-1.7.19-.58.13-1.13.33-1.65.61-.52.28-.94.64-1.26,1.09s-.49,1-.49,1.65c0,1.04.39,1.83,1.17,2.38.78.55,1.75,1.02,2.94,1.41s2.45.78,3.81,1.17,2.63.94,3.81,1.65,2.16,1.67,2.94,2.86c.78,1.2,1.17,2.8,1.17,4.81s-.36,3.58-1.07,5c-.71,1.42-1.67,2.61-2.89,3.54-1.21.94-2.62,1.63-4.22,2.09-1.6.45-3.29.68-5.07.68-2.23,0-4.3-.34-6.21-1.02-1.91-.68-3.69-1.78-5.34-3.3l5.39-5.92c.78,1.04,1.76,1.84,2.94,2.4s2.4.85,3.67.85c.61,0,1.24-.07,1.87-.22s1.2-.36,1.7-.66c.5-.29.91-.66,1.21-1.12.31-.45.46-.99.46-1.6,0-1.04-.4-1.85-1.19-2.45-.79-.6-1.79-1.11-2.99-1.53-1.2-.42-2.49-.84-3.88-1.26-1.39-.42-2.69-.99-3.88-1.7-1.2-.71-2.19-1.65-2.99-2.82-.79-1.17-1.19-2.7-1.19-4.61s.36-3.46,1.09-4.85,1.7-2.56,2.91-3.5c1.21-.94,2.61-1.64,4.2-2.11,1.59-.47,3.22-.7,4.9-.7,1.94,0,3.82.28,5.63.83,1.81.55,3.45,1.47,4.9,2.77l-5.19,5.68Z"/>
  </g>
</svg>